<?xml version="1.0" encoding="utf-8"?>
<!-- Generator: Adobe Illustrator 24.3.0, SVG Export Plug-In . SVG Version: 6.00 Build 0)  -->
<svg version="1.1" id="Layer_1" xmlns="http://www.w3.org/2000/svg" xmlns:xlink="http://www.w3.org/1999/xlink" x="0px" y="0px"
	 viewBox="0 0 512 512" style="enable-background:new 0 0 512 512;" xml:space="preserve">
<style type="text/css">
	.st0{fill:#A1A1A1;}
	.st1{fill-rule:evenodd;clip-rule:evenodd;fill:#006677;}
	.st2{fill-rule:evenodd;clip-rule:evenodd;fill:#FFFFFF;}
	.st3{fill-rule:evenodd;clip-rule:evenodd;fill:#E45300;}
</style>
<g id="Layer_x0020_1">
	<path class="st0" d="M2.78,335.13c0,1.01,0.03,2.68,1.21,4.21c1.64,2.1,4.87,2.37,6.45,2.37c5.33,0,8.22-2.79,8.22-6.48
		c0-0.87-0.14-2.89-2.08-4.15c-1.21-0.81-1.75-0.93-6.72-2.19c-2.54-0.6-3.75-1.23-3.75-3.09c0-2.08,1.73-3.37,4.62-3.37
		c2.05,0,4.24,0.58,4.38,3.17h3c-0.06-0.87-0.11-2.27-1.26-3.55c-1.67-1.81-4.47-2.05-5.85-2.05c-3.93,0-7.93,1.85-7.93,6.09
		c0,1.39,0.46,2.95,2.16,4.1c1.07,0.72,2.48,1.07,5.65,1.85c2.92,0.72,4.78,1.18,4.78,3.52c0,1.04-0.55,3.72-4.87,3.72
		c-4.78,0-4.95-2.68-5.02-4.12h-3V335.13z M33.44,334.46c0.06-2.36,0.2-8.09-6.28-8.09c-0.84,0-2.57,0.08-3.96,1.07
		c-2.27,1.59-2.85,3.94-2.85,6.8c0,4.59,2.16,7.41,6.72,7.41c2.92,0,4.35-1.21,4.99-1.94c1.04-1.12,1.15-2.3,1.23-3.03h-2.72
		c-0.22,2.08-1.64,3-3.39,3c-2.97,0-4.21-2.22-4.15-5.22L33.44,334.46L33.44,334.46z M23.15,332.56c0.06-3.2,2.19-4.26,3.96-4.26
		c3.34,0,3.61,2.88,3.58,4.26H23.15z M36.6,341.2h2.74v-7.7c0-2.48,0.74-4.38,3.96-4.38c0.32,0,0.58,0,0.77,0.03
		c0.2,0.03,0.38,0.06,0.52,0.11v-2.65c-0.46-0.03-1.07-0.06-1.88,0.06c-1.21,0.17-2.95,0.84-3.46,2.85l-0.06-2.79h-2.74
		c0.08,0.95,0.14,1.96,0.14,2.95v11.53H36.6z M50.57,341.2h2.74l6.34-14.48h-3l-4.5,11.47l-4.62-11.47h-3.03L50.57,341.2z
		 M61.51,323.42h3.25v-2.97h-3.25V323.42z M61.8,341.2h2.71v-14.48H61.8V341.2z M68.92,341.2h2.71v-8.33c0-2.92,1.81-4.32,3.77-4.32
		c0.93,0,1.88,0.32,2.57,0.98c0.66,0.66,0.77,1.53,0.77,2.48v9.2h2.76v-9.83c0-4.43-3.96-4.92-5.25-4.92
		c-3.28,0-4.32,2.02-4.64,2.62l-0.03-2.33h-2.71l0.03,1.67v12.78H68.92z M85.19,342.32c0.11,1.96,0.29,4.67,6.09,4.67
		c1.99,0,4.81-0.29,6.02-2.6c0.58-1.09,0.69-2.51,0.69-5.99l0.03-9.05l0.06-2.62h-2.62l-0.03,1.99c-0.58-0.74-1.64-2.19-4.56-2.19
		c-3.55,0-6.42,2.38-6.42,7.29c0,1.94,0.41,3.86,1.64,5.33c1.21,1.5,3.11,1.78,4.43,1.78c0.87,0,3.61-0.06,4.76-2.45
		c0,3.93-0.06,6.66-3.83,6.66c-2.57,0-3.25-1.21-3.37-2.82h-2.88V342.32z M91.22,338.93c-3.31,0-3.98-2.95-3.98-5.16
		c0-1.85,0.46-5.3,3.89-5.3c1.23,0,2.4,0.49,3.11,1.26c0.72,0.74,1.12,1.78,1.12,3.61c0,2.62-0.41,3.39-0.98,4.15
		C93.72,338.35,92.81,338.93,91.22,338.93z M107.69,328.66h2.57v9.65c0,2.37,1.18,3.09,3.66,3.09c0.98,0,1.75-0.08,2.24-0.17v-2.1
		c-0.22,0.06-0.74,0.14-1.29,0.14c-1.94,0-1.94-1.21-1.94-1.94v-8.68h3.23v-1.99h-3.23v-3.89l-2.68,0.87v3.03h-2.57V328.66z
		 M118.55,341.2h2.74v-7.67c0-0.9,0-2.24,0.46-3.06c0.38-0.69,1.39-1.94,3.39-1.94c3.11,0,3.11,2.79,3.11,4.1v8.56h2.76v-9.05
		c0-2.1-0.2-2.79-0.49-3.37c-0.84-1.75-3.03-2.3-4.56-2.3c-2.02,0-3.8,0.87-4.7,2.4v-8.42h-2.74v20.75H118.55z M147.25,334.46
		c0.06-2.36,0.2-8.09-6.28-8.09c-0.84,0-2.57,0.08-3.96,1.07c-2.27,1.59-2.85,3.94-2.85,6.8c0,4.59,2.16,7.41,6.72,7.41
		c2.92,0,4.35-1.21,4.99-1.94c1.04-1.12,1.15-2.3,1.23-3.03h-2.71c-0.22,2.08-1.64,3-3.39,3c-2.97,0-4.21-2.22-4.15-5.22
		L147.25,334.46L147.25,334.46z M136.95,332.56c0.06-3.2,2.19-4.26,3.94-4.26c3.34,0,3.61,2.88,3.58,4.26H136.95z M173.66,326.01
		c-0.38-4.73-4.53-5.91-7.46-5.91c-7.41,0-9.1,6.55-9.1,10.93c0,4.04,1.42,10.49,8.74,10.49c3.58,0,7.35-1.7,7.79-5.79h-3.18
		c-0.08,0.49-0.27,1.39-1.01,2.19c-0.9,0.93-2.1,1.23-3.37,1.23c-4.76,0-5.88-4.24-5.88-8.16c0-3.46,0.9-8.58,5.91-8.58
		c4.01,0,4.38,2.89,4.5,3.61L173.66,326.01L173.66,326.01z M175.23,334.15c0,4.24,2.33,7.55,7.13,7.55c4.92,0,7.32-3.52,7.32-7.76
		c0-3.03-1.3-7.57-7.1-7.57C176.9,326.36,175.23,330.57,175.23,334.15z M178.05,333.96c0-4.53,2.79-5.62,4.53-5.62
		c2.54,0,4.21,1.91,4.21,5.5c0,4.35-2.34,5.82-4.38,5.82C179.33,339.67,178.05,336.94,178.05,333.96z M192.67,326.74v9.72
		c0,2.85,1.67,4.9,5.25,4.9c3.11,0,4.1-1.61,4.62-2.62l0.06,2.48h2.82c-0.03-0.81-0.08-2.43-0.08-2.71v-11.75h-2.79v8.19
		c0,0.72,0,1.85-0.6,2.71c-0.77,1.15-2.05,1.61-3.39,1.61c-2.76,0-3.09-1.78-3.09-3.2v-9.31h-2.78V326.74z M209.68,341.2h2.71v-8.33
		c0-2.92,1.81-4.32,3.77-4.32c0.93,0,1.88,0.32,2.57,0.98c0.66,0.66,0.77,1.53,0.77,2.48v9.2h2.76v-9.83c0-4.43-3.96-4.92-5.25-4.92
		c-3.28,0-4.32,2.02-4.64,2.62l-0.03-2.33h-2.71l0.03,1.67v12.78H209.68z M224.03,328.66h2.57v9.65c0,2.37,1.18,3.09,3.66,3.09
		c0.98,0,1.75-0.08,2.24-0.17v-2.1c-0.22,0.06-0.74,0.14-1.29,0.14c-1.94,0-1.94-1.21-1.94-1.94v-8.68h3.23v-1.99h-3.23v-3.89
		l-2.68,0.87v3.03h-2.57V328.66z M235.03,341.2h2.74v-7.7c0-2.48,0.74-4.38,3.96-4.38c0.32,0,0.58,0,0.77,0.03
		c0.2,0.03,0.38,0.06,0.52,0.11v-2.65c-0.46-0.03-1.07-0.06-1.88,0.06c-1.21,0.17-2.95,0.84-3.46,2.85l-0.06-2.79h-2.74
		c0.08,0.95,0.14,1.96,0.14,2.95v11.53H235.03z M258.09,326.74h-2.95l-4.62,11.42L246,326.74h-3.06l6.02,14.42l-2.19,5.54h2.79
		l2.08-5.39L258.09,326.74z M259.34,337.75l-1.85,7.08h1.96l3.23-7.08H259.34z M273.45,341.2h2.89v-9.26h3.37
		c3.75,0,5.19-0.69,6.28-1.78c1.12-1.12,1.64-2.48,1.64-4.07c0-1.56-0.49-2.97-1.53-4.04c-1.42-1.53-3.14-1.67-5.68-1.67h-6.97
		L273.45,341.2L273.45,341.2z M276.34,322.73h4.04c1.5,0,4.21,0,4.21,3.25c0,3.39-2.92,3.55-4.81,3.55h-3.44V322.73z M289.67,341.2
		h2.74v-7.7c0-2.48,0.74-4.38,3.96-4.38c0.32,0,0.58,0,0.77,0.03c0.2,0.03,0.38,0.06,0.52,0.11v-2.65
		c-0.46-0.03-1.07-0.06-1.88,0.06c-1.21,0.17-2.95,0.84-3.46,2.85l-0.06-2.79h-2.74c0.08,0.95,0.14,1.96,0.14,2.95v11.53H289.67z
		 M299.51,323.42h3.25v-2.97h-3.25V323.42z M299.81,341.2h2.71v-14.48h-2.71V341.2z M316.86,328.69c-0.35-0.6-1.39-2.45-4.5-2.45
		c-3.39,0-6.54,2.4-6.54,7.9c0,6.34,4.29,7.35,6.23,7.35c0.98,0,2.4-0.25,3.58-1.07c0.74-0.52,1.07-1.12,1.3-1.53l0.06,2.3h2.71
		c-0.06-0.74-0.11-1.99-0.11-2.3v-18.45h-2.71v8.25H316.86z M316.95,333.77c0,1.12,0,5.82-4.26,5.82c-3.31,0-3.98-2.97-3.98-5.54
		c0-0.98,0-5.79,3.98-5.79c1.53,0,2.6,0.72,3.17,1.47C316.46,330.51,316.95,331.66,316.95,333.77z M335.54,334.46
		c0.06-2.36,0.2-8.09-6.28-8.09c-0.84,0-2.57,0.08-3.96,1.07c-2.27,1.59-2.85,3.94-2.85,6.8c0,4.59,2.16,7.41,6.72,7.41
		c2.92,0,4.35-1.21,4.99-1.94c1.04-1.12,1.15-2.3,1.23-3.03h-2.71c-0.22,2.08-1.64,3-3.39,3c-2.97,0-4.21-2.22-4.15-5.22
		L335.54,334.46L335.54,334.46z M325.24,332.56c0.06-3.2,2.19-4.26,3.96-4.26c3.34,0,3.61,2.88,3.58,4.26H325.24z M345.26,334.15
		c0,4.24,2.33,7.55,7.13,7.55c4.92,0,7.32-3.52,7.32-7.76c0-3.03-1.29-7.57-7.1-7.57C346.93,326.36,345.26,330.57,345.26,334.15z
		 M348.08,333.96c0-4.53,2.79-5.62,4.53-5.62c2.54,0,4.21,1.91,4.21,5.5c0,4.35-2.33,5.82-4.38,5.82
		C349.35,339.67,348.08,336.94,348.08,333.96z M370.21,320.25c-0.58-0.08-1.44-0.2-2.22-0.2c-1.88,0-3.03,0.66-3.63,1.59
		c-0.49,0.74-0.6,1.47-0.6,3.46v1.64h-2.86v1.96h2.86v12.51h2.68V328.7h3.37v-1.96h-3.37v-2.27c0-1.01,0-2.1,2.19-2.1
		c0.55,0,1.12,0.03,1.59,0.06L370.21,320.25L370.21,320.25z M377.17,328.66h2.57v9.65c0,2.37,1.18,3.09,3.66,3.09
		c0.98,0,1.75-0.08,2.24-0.17v-2.1c-0.22,0.06-0.74,0.14-1.29,0.14c-1.94,0-1.94-1.21-1.94-1.94v-8.68h3.23v-1.99h-3.23v-3.89
		l-2.68,0.87v3.03h-2.57L377.17,328.66L377.17,328.66z M388.03,341.2h2.74v-7.67c0-0.9,0-2.24,0.46-3.06
		c0.38-0.69,1.39-1.94,3.39-1.94c3.11,0,3.11,2.79,3.11,4.1v8.56h2.76v-9.05c0-2.1-0.2-2.79-0.49-3.37c-0.84-1.75-3.03-2.3-4.56-2.3
		c-2.02,0-3.8,0.87-4.7,2.4v-8.42h-2.74v20.75H388.03z M416.73,334.46c0.06-2.36,0.2-8.09-6.28-8.09c-0.84,0-2.57,0.08-3.96,1.07
		c-2.27,1.59-2.85,3.94-2.85,6.8c0,4.59,2.16,7.41,6.72,7.41c2.92,0,4.35-1.21,4.99-1.94c1.04-1.12,1.15-2.3,1.23-3.03h-2.71
		c-0.22,2.08-1.64,3-3.39,3c-2.97,0-4.21-2.22-4.15-5.22L416.73,334.46L416.73,334.46z M406.43,332.56c0.06-3.2,2.19-4.26,3.94-4.26
		c3.34,0,3.61,2.88,3.58,4.26H406.43z M427.72,341.2h2.62v-17.67l10.58,17.67h3.69v-20.82h-2.65v17.21l-10.24-17.21h-4.01v20.82
		H427.72z M460.25,341.2c-0.2-1.47-0.22-3.39-0.22-3.63l0.11-6.92c0-0.66-0.03-1.36-0.49-2.22c-0.77-1.47-3.03-2.13-5.13-2.13
		c-1.53,0-3.58,0.35-4.67,1.56c-0.84,0.98-0.93,1.99-1.01,2.74h2.71c0.03-0.58,0.17-2.45,2.92-2.45c0.77,0,1.96,0.24,2.51,0.95
		c0.52,0.63,0.52,1.42,0.52,3.2c-0.84-0.06-1.26-0.08-1.96-0.08c-1.15,0-3.46,0.08-5.02,0.95c-2.13,1.23-2.54,3.09-2.54,4.24
		c0,2.4,1.8,4.26,5.11,4.26c1.21,0,3.17-0.24,4.47-2.62c0,0.74,0.06,1.44,0.25,2.16L460.25,341.2L460.25,341.2z M457.49,334.17
		c-0.06,2.02-0.08,2.82-0.69,3.8c-0.66,1.01-1.7,1.56-3.09,1.56c-2.43,0-3-1.59-3-2.51c0-2.95,4.12-2.95,5.22-2.95
		C456.59,334.09,457,334.12,457.49,334.17z M461.82,328.66h2.57v9.65c0,2.37,1.18,3.09,3.66,3.09c0.98,0,1.75-0.08,2.24-0.17v-2.1
		c-0.22,0.06-0.74,0.14-1.3,0.14c-1.94,0-1.94-1.21-1.94-1.94v-8.68h3.23v-1.99h-3.23v-3.89l-2.68,0.87v3.03h-2.57v1.99H461.82z
		 M472.43,323.42h3.25v-2.97h-3.25V323.42z M472.71,341.2h2.71v-14.48h-2.71V341.2z M478.67,334.15c0,4.24,2.33,7.55,7.13,7.55
		c4.92,0,7.32-3.52,7.32-7.76c0-3.03-1.29-7.57-7.1-7.57C480.34,326.36,478.67,330.57,478.67,334.15z M481.5,333.96
		c0-4.53,2.79-5.62,4.53-5.62c2.54,0,4.21,1.91,4.21,5.5c0,4.35-2.33,5.82-4.38,5.82C482.77,339.67,481.5,336.94,481.5,333.96z
		 M496.47,341.2h2.71v-8.33c0-2.92,1.81-4.32,3.77-4.32c0.93,0,1.88,0.32,2.57,0.98c0.66,0.66,0.77,1.53,0.77,2.48v9.2h2.76v-9.83
		c0-4.43-3.96-4.92-5.25-4.92c-3.28,0-4.32,2.02-4.64,2.62l-0.03-2.33h-2.71l0.03,1.67v12.78H496.47z"/>
	<path id="_719543696" class="st1" d="M308.35,165h31.52l76.81,103.52v-87.76c0-8.88-12.15-15.44-12.15-15.44h39.39
		c0,0-10.34,5.92-10.34,15.29v133.11c0,0-18.22-7.39-32.01-26.13c-13.79-18.74-65.48-86.27-65.48-86.27v89.4
		c0,6.41,10.83,14.29,10.83,14.29h-38.9c0,0,10.83-5.92,10.83-13.8V182.09C318.86,170.26,308.35,165,308.35,165z M477.84,268.51
		v-87.87c0-8.88-12.2-15.47-12.2-15.47H512c0,0-10.39,5.92-10.39,15.3v109.32c0,8.39,9.9,15.3,9.9,15.3h-44.55
		c0,0,10.89-6.75,10.89-13.65L477.84,268.51L477.84,268.51z M213.47,179.16v42.4h20.14c9.34,0,22.61-4.92,22.61-22.19
		c0-17.25-19.65-20.21-26.54-20.21H213.47z M213.47,235.37v55.21h26.54c10.32,0,29.49-8.88,29.49-26.13s-15.72-29.09-30.47-29.09
		h-25.56V235.37z M179.13,165.13h68.1c15.23,0,32.57,13.05,32.57,30.79c0,24.16-18.52,27.44-18.52,27.44s32.45,7.88,32.45,38.94
		c0,31.06-35.39,42.78-47.19,42.78l-68.29-0.17c0,0,11.77-6.12,11.77-16.47v-106.5C190.03,171.11,179.13,165.13,179.13,165.13z"/>
	<g id="_719544824">
		<path class="st2" d="M0,305.1h139.97V165.13H0V305.1z"/>
		<path class="st3" d="M0,165.13h43.74c-0.13,0.31-0.45,1.14-0.84,2.65c-1.91,7.39-4.66,28.76,14.53,60.07
			c4.74,7.73,9.33,13.86,14.04,19.86l-15.21,12.16C31.04,228.98,0,189.64,0,189.64V165.13z M0,218.49v86.61l42.4-34.24l-29.23-36.37
			L0,218.49z M139.97,209.74c-0.31-0.42-1.61-2.4-3.51-4.35c-5.81-5.98-18.39-15.58-33.53-7.36c-13.99,7.59-21.15,24.98-3.7,47.97
			c14.34,18.92,27.3,20.77,34.61,19.69c1.26-0.18,5.13-1.12,6.14-1.74v-54.22H139.97z M139.97,184.38v-19.25H62.11
			c-0.08,0.34-0.66,1.51-0.88,3.49c-0.5,4.43-0.69,12.86,2.45,24.83c4.31,16.41,16.3,31.06,16.3,31.06s-1.23-16.33,13.82-31.41
			c9.52-9.54,20.31-12.5,29.06-12.37c3.09,0.04,5.93,0.46,8.37,1.02C132.28,181.98,139.17,183.96,139.97,184.38z M139.97,270.98
			c-0.35,0.29-1.18,0.83-2.6,1.8c-3.82,2.6-12.02,6.44-25.56,4.4c-12.26-1.85-23.99-10.02-34.76-22.71l-15.4,12.36
			c10.87,13.07,19.29,23.55,22.11,25.57c10.63,7.63,17.94,4.73,17.94,4.73l-9.85,7.98h48.11V270.98z M67.36,305.1H14l4.36-3.53
			l29.63-23.75c0,0,11.74,15.25,16.37,20.84c0.87,1.07,1.54,2.06,2.05,2.96C67.3,303.23,67.19,304.3,67.36,305.1z"/>
	</g>
</g>
</svg>
